<?xml version="1.0" standalone="no"?><!DOCTYPE svg PUBLIC "-//W3C//DTD SVG 1.1//EN" "http://www.w3.org/Graphics/SVG/1.1/DTD/svg11.dtd"><svg t="1643461541584" class="icon" viewBox="0 0 1024 1024" version="1.1" xmlns="http://www.w3.org/2000/svg" p-id="1592" xmlns:xlink="http://www.w3.org/1999/xlink" width="200" height="200"><defs><style type="text/css"></style></defs><path d="M572.6 673.2s135.4-72.6 189.2-125.8l39.4 79c-80.8 95-239.4 43.8-239.4 43.8-174.8-68.4-334.6-370.6-334.6-370.6" fill="#FEFE71" p-id="1593"></path><path d="M544.2 425.6c-34.6-36.2-115.8-66-182.8-68.8-96-3.8-136.4-40.2-136.4-40.2S195.2 533.6 294.2 666c0.2 0.4 0.6 0.8 0.8 1.2 1 1.2 1.8 2.4 2.8 3.6 4.2 5.4 8.8 10.8 13.8 15.8 68.4 68.6 179.4 69 248 0.8s68.6-179.2 0-248c-4.8-4.8-10-9.4-15.4-13.8z" fill="#FE8E46" p-id="1594"></path><path d="M546.2 408.4s0-0.2 0 0c-34.6-36.2-115.8-66-182.8-68.8-96-3.8-136.4-40.2-136.4-40.2s-3.6 25.6-4.2 64.8c19.2 11 58.4 27.8 122 30.4 67.2 2.6 148.2 32.4 182.8 68.6v0.2c5.4 4.2 10.6 8.8 15.6 13.8 41.2 41.4 57.6 98 49.2 151.4 35.4-66.2 25-150.4-30.8-206.4-4.8-5-10-9.6-15.4-13.8z" fill="#E56823" p-id="1595"></path><path d="M438.2 735c-48.6 0-97.4-18.6-134.4-55.8-4.8-5-9.8-10.4-14.4-16.2-0.2-0.2-0.4-0.6-0.8-0.8-0.8-1-1.4-2-2.2-3l-1-1.4c-0.2-0.4-0.4-0.6-0.6-1-29.2-39.2-66-111.2-74.2-231.6-5-71.4 2.2-125.6 2.6-128 0.8-5.2 4.2-9.4 9-11.2 4.8-1.8 10.4-0.8 14.2 2.8 0 0 9.6 8.2 30 16.8 18.8 8 51.2 17.8 97.6 19.6 71.2 2.8 155.4 34.6 191.8 72.4 5.8 4.6 11 9.4 16 14.2 35.8 35.8 55.4 83.4 55.4 134 0 50.6-19.8 98-55.6 133.8-36.8 37.2-85 55.4-133.4 55.4z m-128-90.6c0.2 0.2 0.4 0.4 0.6 0.8 4.2 5.4 8.4 10 12.8 14.4 31.6 31.6 73 47.6 114.6 47.6 41.2 0 82.2-15.6 113.6-46.8 30.4-30.4 47.2-70.8 47.2-114s-16.8-83.6-47.2-114.2c-4.4-4.4-9-8.6-14.4-12.8-0.6-0.4-1.2-1-1.6-1.4 0 0-0.2-0.2-0.2-0.4-31.8-32.8-109-61.4-172.8-64-61.8-2.4-102-18-124-29.8-4.2 57.8-7.4 215 68.6 316.8l1.6 2.2c0.4 0.4 0.8 1 1.2 1.6z" fill="#463218" p-id="1596"></path><path d="M656.6 697.8h-5.6c-51.2-1-91.8-13.8-93.4-14.4-0.2 0-0.6-0.2-0.8-0.2-75-29.4-155.4-102-239-215.8-61.8-84-102.4-160.6-102.8-161.4-3.6-6.8-1-15.4 5.8-19 6.8-3.6 15.4-1 19 5.8 1.6 3 159.2 297.8 327 364 0.6 0.2 2.2 0.6 4.4 1.2 24.4-13.4 135-75.2 181.2-120.8 3.2-3.2 7.6-4.6 12.2-3.8 4.4 0.8 8.2 3.6 10.2 7.6l39.4 79c2.6 5 1.8 11-1.8 15.4-35.4 41-89 62.4-155.8 62.4z m-43.6-31.2c48.4 6.6 123.2 6.6 171.4-42.8L757.6 570c-40.8 35.2-105.4 74.2-144.6 96.6z" fill="#463218" p-id="1597"></path><path d="M408.2 574.8h-1.4l-162.8-16.4c-7.6-0.8-13.4-7.6-12.6-15.4s7.6-13.4 15.4-12.6l162.8 16.4c7.6 0.8 13.4 7.6 12.6 15.4-0.8 7.2-6.8 12.6-14 12.6zM363.8 519c-1 0-2-0.2-3-0.4-7.6-1.6-12.2-9.2-10.6-16.8l35.8-159c1.6-7.6 9.2-12.2 16.8-10.6 7.6 1.6 12.2 9.2 10.6 16.8L377.6 508c-1.6 6.6-7.4 11-13.8 11z" fill="#463218" p-id="1598"></path><path d="M543.2 491.6c-2.2-2.6-4.6-5-7-7.4-4.4-4.6-9.4-8.8-14.8-13l12.4-15.6c6 4.6 11.4 9.6 16.4 14.6 2.6 2.6 5.2 5.4 7.8 8.2l-14.8 13.2zM507.2 458.4c-11.4-8.6-25.4-16.8-41.8-24.2l8.2-18.2c17.8 8 33.2 17 45.8 26.6l-12.2 15.8z" fill="#FFFFFF" p-id="1599"></path><path d="M473.4 628.6c-0.8 0-1.4 0-2.2-0.2-7.6-1.2-12.8-8.4-11.6-16l17-108.2c1.2-7.6 8.4-12.8 16-11.6 7.6 1.2 12.8 8.4 11.6 16l-17 108.2c-1 7-7 11.8-13.8 11.8z" fill="#463218" p-id="1600"></path></svg>