<?xml version="1.0" standalone="no"?><!DOCTYPE svg PUBLIC "-//W3C//DTD SVG 1.1//EN" "http://www.w3.org/Graphics/SVG/1.1/DTD/svg11.dtd"><svg t="1645966195262" class="icon" viewBox="0 0 1024 1024" version="1.1" xmlns="http://www.w3.org/2000/svg" p-id="2372" xmlns:xlink="http://www.w3.org/1999/xlink" width="200" height="200"><defs><style type="text/css"></style></defs><path d="M756.73 425.79v492.65H140.91z" fill="#1F4EE4" p-id="2373"></path><path d="M847.78 918.44H360.05V105.56c269.36 0 487.72 218.36 487.72 487.72v325.16z" fill="#1AADF9" p-id="2374"></path><path d="M62 512h298.05V304.27h-90.32C155.01 304.27 62 397.27 62 512z" fill="#3D90F4" p-id="2375"></path><path d="M269.73 602.32h90.32V512H179.42c0 49.88 40.43 90.32 90.31 90.32z" fill="#0C2E97" p-id="2376"></path><path d="M567.79 475.87m-108.38 0a108.38 108.38 0 1 0 216.76 0 108.38 108.38 0 1 0-216.76 0Z" fill="#FFFFFF" p-id="2377"></path><path d="M567.79 475.87m-63.22 0a63.22 63.22 0 1 0 126.44 0 63.22 63.22 0 1 0-126.44 0Z" fill="#0E181C" p-id="2378"></path><path d="M585.85 475.87c0 9.94-8.13 18.06-18.06 18.06-2.62 0-5.15-0.54-7.41-1.63 4.43-2.08 7.41-6.6 7.41-11.92 0-7.5-6.05-13.55-13.55-13.55-0.72 0-1.44 0.09-2.17 0.18 3.07-5.51 9.03-9.21 15.72-9.21 9.93 0.01 18.06 8.14 18.06 18.07z" fill="#FFFFFF" p-id="2379"></path><path d="M567.79 480.39c0 5.33-2.98 9.84-7.41 11.92-6.23-2.8-10.66-9.12-10.66-16.44 0-3.25 0.81-6.23 2.35-8.85 0.72-0.09 1.44-0.18 2.17-0.18 7.5 0 13.55 6.05 13.55 13.55z" fill="#0080FF" p-id="2380"></path><path d="M962 557.16v361.28H510.4z" fill="#0C2E97" p-id="2381"></path></svg>